<?xml version="1.0" encoding="UTF-8" standalone="no"?>
<svg width="48px" height="58px" viewBox="0 0 48 58" version="1.1" xmlns="http://www.w3.org/2000/svg" xmlns:xlink="http://www.w3.org/1999/xlink">
    <!-- Generator: Sketch 40.3 (33839) - http://www.bohemiancoding.com/sketch -->
    <title>apron</title>
    <desc>Created with Sketch.</desc>
    <defs></defs>
    <g id="Final" stroke="none" stroke-width="1" fill="none" fill-rule="evenodd">
        <g id="About" transform="translate(-325.000000, -44.000000)">
            <g id="apron" transform="translate(325.000000, 44.000000)">
                <path d="M31.8118405,35.0188679 L16.1887697,35.0188679 C15.6834512,35.0188679 15.2733376,35.4241964 15.2733376,35.9236191 L15.2733376,40.2499884 C15.2733376,40.2558693 15.2727273,40.2612978 15.2727273,40.2665755 C15.2727273,40.2718532 15.2733376,40.2771309 15.2733376,40.2824086 L15.2733376,41.713725 C15.2733376,46.4701527 19.1883359,50.3396226 24.0003051,50.3396226 C28.8122744,50.3396226 32.7272727,46.4701527 32.7272727,41.713725 L32.7272727,35.9236191 C32.7272727,35.4241964 32.317922,35.0188679 31.8118405,35.0188679 L31.8118405,35.0188679 Z M30.8964084,41.713725 C30.8964084,45.4723629 27.8033156,48.5301203 24.0003051,48.5301203 C20.197905,48.5301203 17.1042019,45.4723629 17.1042019,41.713725 L17.1042019,41.0977402 C17.7479033,40.9887177 18.1812079,40.775498 18.5501271,40.5928891 C19.0047917,40.3685108 19.3331267,40.2058064 20.0936983,40.2058064 C20.853507,40.2058064 21.1819946,40.3685108 21.6366592,40.5928891 C22.1581504,40.850894 22.8065816,41.1713267 23.9990846,41.1713267 C25.1917401,41.1713267 25.8401713,40.850894 26.3616625,40.5928891 C26.8163271,40.3685108 27.1448147,40.2058064 27.9052337,40.2058064 C28.6656527,40.2058064 28.9941403,40.3685108 29.4488049,40.5928891 C29.8177241,40.775498 30.2522492,40.9887177 30.8970186,41.0981926 L30.8970186,41.713725 L30.8964084,41.713725 Z" id="Fill-1" fill="#76BDDD"></path>
                <path d="M47.0600461,18.0388177 C44.3308899,18.0388177 42.1100921,20.2586137 42.1100921,22.9873217 L42.1100921,25.9936609 C42.1100921,27.686224 40.7325896,29.0631051 39.0392627,29.0631051 C35.6877003,29.0631051 32.9607373,26.3373722 32.9607373,22.9873217 L32.9607373,14.9701564 C32.9607373,14.2398285 32.5556172,13.6036102 31.9584331,13.2721127 L31.9584331,7.95484317 C31.9584331,3.56849119 28.3883315,0 24,0 C19.6118251,0 16.0415669,3.56849119 16.0415669,7.95484317 L16.0415669,13.2721127 C15.4450094,13.6036102 15.0392627,14.2398285 15.0392627,14.9701564 L15.0392627,18.4603535 C15.0392627,18.4664604 15.038636,18.471941 15.038636,18.4774216 C15.038636,18.4829022 15.0392627,18.4883828 15.0392627,18.4944897 L15.0392627,22.9873217 C15.0392627,26.3373722 12.3124563,29.0631051 8.96073734,29.0631051 C7.26819366,29.0631051 5.89069119,27.686224 5.89069119,25.9936609 L5.89069119,22.9873217 C5.89069119,20.2586137 3.66989341,18.0388177 0.939953916,18.0388177 C0.421099354,18.0388177 0,18.4597271 0,18.9783476 C0,19.4977511 0.421099354,19.9178775 0.939953916,19.9178775 C2.6332809,19.9178775 4.01078336,21.2947586 4.01078336,22.9873217 L4.01078336,25.9936609 C4.01078336,28.4005799 5.73951527,30.4111739 8.02078343,30.8515003 L8.02078343,42.0279915 C8.02078343,50.8356147 15.1891853,58 24,58 C32.8108147,58 39.9792166,50.8356147 39.9792166,42.0279915 L39.9792166,30.8515003 C42.261268,30.4111739 43.9899999,28.4005799 43.9899999,25.9936609 L43.9899999,22.9873217 C43.9899999,21.2947586 45.3675024,19.9178775 47.0600461,19.9178775 C47.5796839,19.9178775 48,19.4977511 48,18.9783476 C48,18.4597271 47.5796839,18.0388177 47.0600461,18.0388177 L47.0600461,18.0388177 Z M17.9214747,7.95484317 C17.9214747,4.60463609 20.6484377,1.87905982 24,1.87905982 C27.351719,1.87905982 30.0785253,4.60463609 30.0785253,7.95484317 L30.0785253,13.0279915 L17.9214747,13.0279915 L17.9214747,7.95484317 Z M16.9191705,14.9701564 C16.9191705,14.9352372 16.9473691,14.9070513 16.9815208,14.9070513 L31.0184792,14.9070513 C31.0534142,14.9070513 31.0808295,14.9352372 31.0808295,14.9701564 L31.0808295,17.4155962 C30.853204,17.3446617 30.6586335,17.2478901 30.4346112,17.136086 C29.8997774,16.8687898 29.2333501,16.5360396 28.0089035,16.5360396 C26.7844568,16.5360396 26.1186561,16.8687898 25.5838223,17.136086 C25.1168219,17.3690895 24.7790651,17.5378917 23.9987467,17.5378917 C23.2179583,17.5378917 22.8808282,17.3690895 22.4138278,17.136086 C21.8783674,16.8687898 21.2125667,16.5360396 19.98812,16.5360396 C18.7635167,16.5360396 18.097716,16.8687898 17.5628823,17.136086 C17.3396432,17.2474203 17.1455427,17.3440353 16.9191705,17.4143435 L16.9191705,14.9701564 Z M38.0999354,42.0279915 C38.0999354,49.7993132 31.7748288,56.1209402 24.0006266,56.1209402 C16.2257978,56.1209402 9.90131789,49.7993132 9.90131789,42.0279915 L9.90131789,30.8864195 C13.8478711,30.4204126 16.9191705,27.0554863 16.9191705,22.9873217 L16.9191705,19.3411627 C17.5801148,19.227323 18.0254962,19.0059072 18.4038277,18.8169051 C18.8706715,18.5832753 19.2078016,18.4150994 19.9887467,18.4150994 C20.769535,18.4150994 21.1066652,18.5832753 21.5736656,18.8169051 C22.1084994,19.0842013 22.7743001,19.4169515 23.9993734,19.4169515 C25.2239767,19.4169515 25.8897773,19.0842013 26.4246111,18.8169051 C26.8914549,18.5832753 27.2287417,18.4150994 28.0095301,18.4150994 C28.7903185,18.4150994 29.1276053,18.5832753 29.594449,18.8169051 C29.9738771,19.0059072 30.4194153,19.2279494 31.0814561,19.3411627 L31.0814561,22.9873217 C31.0814561,27.0554863 34.1529122,30.4204126 38.0999354,30.8864195 L38.0999354,42.0279915 Z" id="Fill-2" fill="#76BDDD"></path>
                <path d="M30.7928167,39.4156856 C30.5711296,39.3472261 30.3816351,39.2541875 30.1634571,39.1463714 C29.6419659,38.8889696 28.9935348,38.5679338 27.8010318,38.5679338 C26.6085288,38.5679338 25.9600976,38.8889696 25.4386064,39.1463714 C24.9837892,39.3709004 24.6554542,39.5334541 23.8950352,39.5334541 C23.1350739,39.5334541 22.8067389,39.3709004 22.3513114,39.1463714 C21.8304305,38.8889696 21.1819994,38.5679338 19.9894964,38.5679338 C18.7968408,38.5679338 18.1484097,38.8889696 17.6269185,39.1463714 C17.4095033,39.2535844 17.2210769,39.3467737 17,39.4144793 L17,37 L30.7928167,37 L30.7928167,39.4156856 Z" id="Path" fill="#9CD9F5"></path>
                <path d="M30.7928167,17.4156856 C30.5711296,17.3472261 30.3816351,17.2541875 30.1634571,17.1463714 C29.6419659,16.8889696 28.9935348,16.5679338 27.8010318,16.5679338 C26.6085288,16.5679338 25.9600976,16.8889696 25.4386064,17.1463714 C24.9837892,17.3709004 24.6554542,17.5334541 23.8950352,17.5334541 C23.1350739,17.5334541 22.8067389,17.3709004 22.3513114,17.1463714 C21.8304305,16.8889696 21.1819994,16.5679338 19.9894964,16.5679338 C18.7968408,16.5679338 18.1484097,16.8889696 17.6269185,17.1463714 C17.4095033,17.2535844 17.2210769,17.3467737 17,17.4144793 L17,15 L30.7928167,15 L30.7928167,17.4156856 Z" id="Path-Copy" fill="#9CD9F5"></path>
            </g>
        </g>
    </g>
</svg>