<?xml version="1.0" encoding="UTF-8" standalone="no"?>
<svg width="47px" height="57px" viewBox="0 0 47 57" version="1.1" xmlns="http://www.w3.org/2000/svg" xmlns:xlink="http://www.w3.org/1999/xlink">
    <!-- Generator: Sketch 40.3 (33839) - http://www.bohemiancoding.com/sketch -->
    <title>Group 12</title>
    <desc>Created with Sketch.</desc>
    <defs></defs>
    <g id="Final" stroke="none" stroke-width="1" fill="none" fill-rule="evenodd">
        <g id="Order-form-" transform="translate(-1084.000000, -50.000000)">
            <g id="Group-12" transform="translate(1085.000000, 51.000000)">
                <polyline id="Fill-179" stroke="#76BDDD" stroke-width="1.3" points="2.00892857 47.7367407 6.60415179 51.0155556 31.8612054 31.5011481 31.1468304 14.9221111 28.8662946 13.8518519 13.6771875 17.5861481 2.00892857 47.7367407"></polyline>
                <polyline id="Fill-180" stroke="#76BDDD" stroke-width="1.3" fill="#9CD9F5" points="2.23151786 48.0740741 0.299330357 52.901037 0 54.9865556 2.390625 54.3436667 6.23933036 50.9336667 2.23151786 48.0740741"></polyline>
                <path d="M23.7053571,3.47871114 L28.4395982,12.9362667 L31.9479911,15.6218963 L43.8123214,14.8649334 C43.1055804,14.9101556 42.5929018,13.832563 42.2598214,12.9456371 C41.7302679,11.5347852 41.3919643,10.9880445 40.1235268,9.95078522 C39.8274107,9.70878522 39.20625,9.44885929 38.1841071,9.33682226 C37.6332589,9.27611855 37.2459375,9.21989633 36.9068304,9.17385929 C35.8437054,9.03004448 34.4205804,8.50571114 33.5334375,7.66115559 C31.7430804,5.95737781 33.1360714,4.59582226 34.2687054,3.23548892 C34.7203125,2.69363707 34.4020982,2.37504448 34.4020982,2.37504448 C33.0802232,1.62052596 32.1444643,1.53904448 30.8217857,0.999229663 C30.1379464,0.720155589 29.1865179,0.784933367 28.2575893,1.01308151 C26.8276339,1.36548892 25.9746429,1.90652596 24.9713839,2.623563 C24.7483929,2.78245189 24.5916964,2.92789633 24.4418304,3.04400744 C24.0203571,3.37115559 23.7889286,3.492563 23.7053571,3.47871114" id="Fill-181" stroke="#76BDDD"></path>
                <path d="M34.3061385,3.10405629 C33.1735046,4.46438962 31.7805135,5.82594517 33.5708707,7.52972295 C34.4580135,8.37427851 35.8811385,8.89861184 36.9442635,9.04242666 C37.2833707,9.08846369 37.6706921,9.14468591 38.2215403,9.20538962 C39.2436832,9.31742666 39.8648439,9.57735258 40.16096,9.81935258 C41.4293975,10.8566118 41.767701,11.4033526 42.2972546,12.8142044 C42.630335,13.7011304 43.1430135,14.778723 43.8497546,14.7335007 C43.9642635,14.7261674 44.0831921,14.6895007 44.2069421,14.6186118 C44.5303796,14.4332415 44.7316742,13.8860933 44.7244421,12.952723 C44.7184153,12.0959452 44.4214957,11.1878341 43.9939957,10.2980563 C43.1719421,8.5885748 41.2293082,6.4985748 40.7355135,5.37738962 C40.5551117,4.96794517 40.5141296,4.46846369 40.3976117,4.12298221 C39.6418528,1.87898221 38.9073885,1.72253777 36.6019421,1.3778711 C35.7240403,1.24627851 34.8043528,1.13179703 33.9364957,0.939093322 C32.5881028,0.639648878 31.1689957,-0.00405482578 29.8157814,1.92482919e-05 C28.2540403,0.00490813718 27.0981028,0.589945174 25.3941296,1.64675999 C24.3466742,2.2965748 23.516585,3.30979703 23.7427903,3.34727851 C23.8263617,3.36113036 24.0577903,3.23972295 24.4792635,2.9125748 C24.6291296,2.79646369 24.785826,2.65101925 25.0088171,2.49213036 C26.012076,1.77509332 26.8650671,1.23405629 28.2950225,0.881648878 C29.223951,0.65350073 30.1753796,0.588722952 30.8592189,0.867797026 C32.1818975,1.40761184 33.1176564,1.48909332 34.4395314,2.24361184 C34.4395314,2.24361184 34.7577457,2.56220443 34.3061385,3.10405629" id="Fill-182" stroke="#76BDDD" fill="#9CD9F5"></path>
                <path d="M30.8372552,15.8888889 L29.8484605,17.3396667 C29.133282,18.3752963 26.7101123,23.8427037 28.1971213,24.1657778 C30.3454695,24.6330741 29.3197105,18.2192593 30.8372552,15.8888889" id="Fill-183" stroke="#76BDDD" stroke-width="0.9" fill="#9CD9F5"></path>
                <path d="M29.1539888,13.8518519 L28.1049263,15.2578148 C27.3584085,16.2702222 22.9958192,20.3153704 22.2280067,18.9847778 C21.1178727,17.0618148 27.4459977,16.0420741 29.1539888,13.8518519" id="Fill-184" stroke="#76BDDD" stroke-width="0.9" fill="#9CD9F5"></path>
                <path d="M30.2406408,15.0740741 L29.2876051,15.7124815 C28.6009533,16.1642963 25.8234087,19.1147407 26.6804176,19.9694815 C27.9195248,21.2055556 28.7532301,16.1292593 30.2406408,15.0740741" id="Fill-185" stroke="#76BDDD" stroke-width="0.9" fill="#9CD9F5"></path>
                <polyline id="Fill-186" fill="#76BDDD" points="27.7232143 14.2046667 28.4882143 12.6296296 31.9966071 15.3152593 30.9632143 17.0451111 27.7232143 14.2046667"></polyline>
            </g>
        </g>
    </g>
</svg>