<?xml version="1.0" encoding="UTF-8" standalone="no"?>
<svg width="29px" height="30px" viewBox="0 0 29 30" version="1.1" xmlns="http://www.w3.org/2000/svg" xmlns:xlink="http://www.w3.org/1999/xlink">
    <!-- Generator: Sketch 40.3 (33839) - http://www.bohemiancoding.com/sketch -->
    <title>google+</title>
    <desc>Created with Sketch.</desc>
    <defs>
        <polygon id="path-1" points="28.6291702 29.374875 28.6291702 0.375625 0 0.375625 0 29.374875"></polygon>
    </defs>
    <g id="Final" stroke="none" stroke-width="1" fill="none" fill-rule="evenodd">
        <g id="Homepage-3.2." transform="translate(-1089.000000, -1571.000000)">
            <g id="google+" transform="translate(1089.000000, 1571.000000)">
                <g id="Group-3" transform="translate(0.000000, 0.249625)">
                    <mask id="mask-2" fill="white">
                        <use xlink:href="#path-1"></use>
                    </mask>
                    <g id="Clip-2"></g>
                    <path d="M28.6294787,14.8755 C28.6294787,22.883625 22.2198617,29.374875 14.3145851,29.374875 C6.40869149,29.374875 -0.000308510638,22.883625 -0.000308510638,14.8755 C-0.000308510638,6.86675 6.40869149,0.3755 14.3145851,0.3755 C22.2198617,0.3755 28.6294787,6.86675 28.6294787,14.8755" id="Fill-1" fill="#FF7D92" mask="url(#mask-2)"></path>
                </g>
                <path d="M15.9287128,12.0635625 C16.0039894,10.9991875 15.4499043,10.5035625 14.8180745,10.3754375 C13.0206915,10.0091875 11.2424362,9.5966875 9.35867021,10.2679375 C8.01418085,10.7479375 7.12443617,11.4704375 6.59009574,12.7779375 C5.72564894,14.8929375 5.85028723,16.9829375 6.61107447,19.0816875 C7.08432979,20.3848125 7.99443617,21.1785625 9.32720213,21.4935625 C10.6457766,21.8048125 11.9668191,21.9341875 13.3156277,21.6766875 C14.3065638,21.4873125 15.0840106,20.9841875 15.5961383,20.1229375 C16.2427766,19.0310625 16.4735426,17.8141875 16.3995,16.5548125 C16.3519894,15.7585625 16.0545851,15.3704375 15.2487553,15.2735625 C14.1998191,15.1485625 13.1317553,15.1679375 12.0729468,15.1760625 C11.8224362,15.1785625 11.5645213,15.3729375 11.325734,15.5060625 C11.0055,15.6841875 10.7204362,15.9085625 10.8913511,16.3448125 C11.0443723,16.7341875 11.3467128,16.8691875 11.7483936,16.7985625 C12.2913723,16.7041875 12.831883,16.5891875 13.3791809,16.5266875 C14.0542021,16.4485625 14.4799468,16.6860625 14.6539468,17.3104375 C14.8982872,18.1810625 14.8699043,19.0329375 14.3244574,19.8266875 C13.5500957,20.9529375 12.3999681,20.9660625 11.2479894,20.9148125 C9.64558511,20.8423125 8.40784043,19.8373125 7.99875532,18.2641875 C7.80994681,17.5385625 7.64211702,16.7716875 7.66618085,16.0298125 C7.75379787,13.2804375 9.12605319,11.5704375 11.903883,11.4785625 C12.7547553,11.4510625 13.614883,11.6716875 14.4688404,11.7948125 C14.921734,11.8598125 15.3703085,11.9598125 15.9287128,12.0635625 M11.468266,22.6885625 C10.5822234,22.4829375 9.41975532,22.2735625 8.2967766,21.9354375 C6.90662766,21.5160625 6.31737234,20.2898125 5.82869149,19.0591875 C4.7007766,16.2160625 5.05926596,13.4798125 6.71473404,10.9698125 C7.11703191,10.3610625 7.90805319,9.9454375 8.60158511,9.6198125 C9.70420213,9.1035625 10.8629681,8.7285625 12.1327979,9.0323125 C13.1990106,9.2891875 14.310883,9.3766875 15.354883,9.6966875 C16.5568404,10.0660625 16.8560957,10.7548125 16.6857979,11.9954375 C16.601266,12.6129375 16.2797979,12.8448125 15.7325,12.7810625 C15.2302447,12.7241875 14.718734,12.6423125 14.2423936,12.4779375 C13.3995426,12.1891875 12.5591596,12.1698125 11.6811383,12.2298125 C9.87079787,12.3541875 8.76632979,13.2829375 8.5867766,15.3304375 C8.50532979,16.2641875 8.59356383,17.2660625 8.85024468,18.1648125 C9.41420213,20.1435625 11.9359681,20.5648125 13.3563511,19.6491875 C13.7777766,19.3766875 14.0301383,18.6873125 14.1603298,18.1391875 C14.2948404,17.5716875 13.8814362,17.2579375 13.2890957,17.3535625 C12.8226277,17.4291875 12.3685,17.5823125 11.9026489,17.6591875 C11.1258191,17.7873125 10.395266,17.3835625 10.1675851,16.7341875 C9.86894681,15.8835625 10.1139043,15.1460625 10.9117128,14.7329375 C11.992734,14.1741875 13.1601383,14.0510625 14.3571596,14.1754375 C14.513266,14.1916875 14.6662872,14.2398125 14.8211596,14.2691875 C16.6635851,14.6216875 17.2158191,15.2766875 17.0800745,17.1973125 C17.0165213,18.1023125 16.806734,19.0110625 16.5537553,19.8854375 C16.1471383,21.2848125 15.0759894,22.0123125 13.7530957,22.3610625 C13.1113936,22.5310625 12.4320532,22.5560625 11.468266,22.6885625" id="Fill-4" fill="#000000"></path>
                <path d="M21.3655957,10.3558125 C20.7547447,10.3558125 20.2531064,10.3239375 19.7564043,10.3633125 C18.9505745,10.4264375 18.8598723,10.6158125 19.1739362,11.6045625 L21.2341702,11.6045625 C21.1718511,12.3614375 21.1181702,13.0108125 21.0577021,13.7458125 C21.6111702,13.7176875 22.0251915,13.6958125 22.4990638,13.6714375 C22.4990638,13.3601875 22.5058511,13.1276875 22.4978298,12.8945625 C22.4558723,11.6014375 22.4688298,11.5876875 23.7929574,11.6495625 C24.8209149,11.6970625 24.9282766,11.5189375 24.5278298,10.2958125 L22.5798936,10.2958125 L22.5798936,8.6845625 C22.1763617,8.6470625 21.8160213,8.6133125 21.3655957,8.5708125 L21.3655957,10.3558125 Z M20.5764255,9.7526875 L20.5764255,8.0933125 C21.3057447,7.4920625 22.070234,7.8045625 22.7841277,7.8433125 C22.9599787,7.8533125 23.1956809,8.1901875 23.2610851,8.4183125 C23.3579574,8.7495625 23.3240213,9.1176875 23.345617,9.4676875 C23.8694681,10.1839375 24.6444468,9.4326875 25.2374043,9.8314375 C25.955617,11.7289375 25.548383,12.3283125 23.3542553,12.4239375 C23.3283404,12.7895625 23.2894681,13.1689375 23.2758936,13.5489375 C23.2561489,14.1158125 23.0118085,14.4464375 22.4231702,14.4751875 C22.1115745,14.4895625 21.8005957,14.5658125 21.4914681,14.5551875 C20.4912766,14.5208125 20.3308511,14.3351875 20.3777447,13.3370625 C20.3931702,13.0208125 20.4203191,12.7058125 20.446234,12.3345625 C19.9828511,12.3126875 19.5558723,12.3020625 19.1307447,12.2708125 C18.4180851,12.2195625 18.1805319,12.0045625 18.1138936,11.3739375 C18.037383,10.6514375 18.3033191,10.0995625 18.8950426,9.9526875 C19.3861915,9.8308125 19.9057234,9.8264375 20.5764255,9.7526875 L20.5764255,9.7526875 Z" id="Fill-6" fill="#000000"></path>
            </g>
        </g>
    </g>
</svg>