<?xml version="1.0" encoding="UTF-8" standalone="no"?>
<svg width="58px" height="58px" viewBox="0 0 58 58" version="1.1" xmlns="http://www.w3.org/2000/svg" xmlns:xlink="http://www.w3.org/1999/xlink">
    <!-- Generator: Sketch 40.3 (33839) - http://www.bohemiancoding.com/sketch -->
    <title>rolling-pin</title>
    <desc>Created with Sketch.</desc>
    <defs>
        <polygon id="path-1" points="0.02175 57.999275 57.646925 57.999275 57.646925 0.35525 0.02175 0.35525"></polygon>
    </defs>
    <g id="Final" stroke="none" stroke-width="1" fill="none" fill-rule="evenodd">
        <g id="Homepage-3.2." transform="translate(-159.000000, -44.000000)">
            <g id="home" transform="translate(150.000000, 44.000000)">
                <g id="rolling-pin" transform="translate(9.000000, 0.000000)">
                    <mask id="mask-2" fill="white">
                        <use xlink:href="#path-1"></use>
                    </mask>
                    <g id="Clip-2"></g>
                    <path d="M56.4691625,1.5330125 C54.8973625,-0.0373375 52.3402875,-0.0373375 50.7699375,1.5330125 L45.0109,7.29205 C44.04955,6.7878125 42.83155,6.9407875 42.026075,7.7462625 L41.5530125,8.217875 L40.876225,7.5410875 C39.88225,6.5471125 38.266225,6.5471125 37.27225,7.5410875 L7.1891,37.6256875 C6.7077,38.1070875 6.4427125,38.7472625 6.4427125,39.42695 C6.4427125,40.1080875 6.7077,40.7479 7.1891,41.2296625 L7.8658875,41.90645 L7.394275,42.3780625 C6.912875,42.8594625 6.64825,43.499275 6.64825,44.1804125 C6.64825,44.5994625 6.7486625,45.0032875 6.9386125,45.3643375 L1.181025,51.121925 C0.41905,51.8835375 0,52.896 0,53.9722625 C0,55.048525 0.41905,56.0609875 1.181025,56.82115 C1.965475,57.60705 2.997875,57.999275 4.0299125,57.999275 C5.0623125,57.999275 6.09435,57.60705 6.88025,56.82115 L12.6378375,51.062475 C13.0075875,51.2564125 13.4154,51.352475 13.8217625,51.352475 C14.474625,51.352475 15.127125,51.1048875 15.624475,50.6079 L16.095725,50.1362875 L16.772875,50.813075 C17.2698625,51.3100625 17.9223625,51.5580125 18.575225,51.5580125 C19.2280875,51.5580125 19.88095,51.3100625 20.3779375,50.813075 L50.4596375,20.729925 C50.9410375,20.248525 51.207475,19.60835 51.207475,18.9272125 C51.207475,18.247525 50.9424875,17.6062625 50.4596375,17.1248625 L49.78285,16.4477125 L50.2559125,15.9764625 C51.0613875,15.170625 51.2129125,13.9529875 50.7104875,12.991275 L56.4691625,7.2322375 C58.0395125,5.6618875 58.0395125,3.1048125 56.4691625,1.5330125 L56.4691625,1.5330125 Z M5.4955,55.43785 C4.688575,56.244775 3.3730625,56.244775 2.564325,55.43785 C2.17355,55.045625 1.956775,54.5258 1.958225,53.9722625 C1.958225,53.418725 2.17355,52.89745 2.564325,52.505225 L8.241075,46.829925 L11.17225,49.7611 L5.4955,55.43785 Z M44.918825,11.5851375 C44.5378375,11.2030625 43.9176,11.2030625 43.535525,11.5851375 C43.1530875,11.966125 43.1530875,12.5863625 43.535525,12.9688 L47.7068125,17.1400875 L47.7068125,17.1415375 L49.0763375,18.5096125 C49.1879875,18.6212625 49.2488875,18.77025 49.2488875,18.9272125 C49.2488875,19.0859875 49.1879875,19.2346125 49.0763375,19.345175 L18.9931875,49.429775 C18.762275,49.6592375 18.3870875,49.6592375 18.157625,49.429775 L12.74695,44.0191 C12.3645125,43.6366625 11.744275,43.6366625 11.3622,44.0191 C10.9797625,44.4015375 10.9797625,45.020325 11.3622,45.4024 L14.710975,48.7529875 L14.2393625,49.2242375 C14.0099,49.4537 13.6347125,49.4537 13.4041625,49.2242375 L8.7793875,44.598375 C8.667375,44.4863625 8.605025,44.3391875 8.605025,44.1804125 C8.605025,44.022 8.667375,43.8744625 8.7793875,43.7628125 L9.937575,42.603175 C9.939025,42.601725 9.941925,42.600275 9.943375,42.598825 C10.301525,42.240675 10.3229125,41.6726375 10.0097125,41.2891125 C9.9886875,41.263375 9.96585,41.238 9.941925,41.214075 L8.57385,39.84455 C8.4622,39.7329 8.39985,39.5853625 8.39985,39.42695 C8.39985,39.269625 8.4622,39.121 8.57385,39.00935 L38.6559125,8.9258375 C38.8864625,8.6952875 39.2620125,8.6952875 39.4925625,8.9258375 L40.8606375,10.2939125 L40.8606375,10.2953625 C41.2427125,10.6774375 41.86295,10.6774375 42.2453875,10.2953625 L43.409375,9.131375 C43.6402875,8.9004625 44.014025,8.9004625 44.2449375,9.131375 L48.86935,13.75615 C49.1002625,13.9867 49.1002625,14.3618875 48.8708,14.5928 L48.3981,15.0644125 L44.918825,11.5851375 Z M55.0844125,5.8489375 L49.4076625,11.5256875 L46.4764875,8.5945125 L52.1532375,2.9177625 C52.961975,2.1093875 54.277125,2.1093875 55.0844125,2.9177625 C55.89315,3.72505 55.89315,5.0405625 55.0844125,5.8489375 L55.0844125,5.8489375 Z" id="Fill-1" fill="#76BDDD" mask="url(#mask-2)"></path>
                    <path d="M5.4955,55.43785 C4.688575,56.244775 3.3730625,56.244775 2.564325,55.43785 C2.17355,55.045625 1.956775,54.5258 1.958225,53.9722625 C1.958225,53.418725 2.17355,52.89745 2.564325,52.505225 L8.241075,46.829925 L11.17225,49.7611 L5.4955,55.43785 Z" id="Path" fill="#9CD9F5" mask="url(#mask-2)"></path>
                    <path d="M55.0844125,5.8489375 L49.4076625,11.5256875 L46.4764875,8.5945125 L52.1532375,2.9177625 C52.961975,2.1093875 54.277125,2.1093875 55.0844125,2.9177625 C55.89315,3.72505 55.89315,5.0405625 55.0844125,5.8489375 L55.0844125,5.8489375 Z" id="Path" fill="#9CD9F5" mask="url(#mask-2)"></path>
                </g>
            </g>
        </g>
    </g>
</svg>