<?xml version="1.0" encoding="UTF-8" standalone="no"?>
<svg width="20px" height="20px" viewBox="0 0 20 20" version="1.1" xmlns="http://www.w3.org/2000/svg" xmlns:xlink="http://www.w3.org/1999/xlink">
    <!-- Generator: Sketch 40.3 (33839) - http://www.bohemiancoding.com/sketch -->
    <title>ingredients</title>
    <desc>Created with Sketch.</desc>
    <defs>
        <polygon id="path-1" points="12.9994363 0.00140921409 0.00211382114 0.00140921409 0.00211382114 13 12.9994363 13 12.9994363 0.00140921409"></polygon>
    </defs>
    <g id="Final" stroke="none" stroke-width="1" fill="none" fill-rule="evenodd">
        <g id="Homepage-3.2." transform="translate(-737.000000, -1571.000000)">
            <g id="ingredients" transform="translate(737.000000, 1571.000000)">
                <g id="Page-1" fill="#FF7D92">
                    <g id="Group-3" transform="translate(0.000000, 0.166792)">
                        <path d="M19.7497917,9.91620833 C19.7497917,15.255375 15.4214583,19.5832917 10.083125,19.5832917 C4.744375,19.5832917 0.416458333,15.255375 0.416458333,9.91620833 C0.416458333,4.57704167 4.744375,0.249958333 10.083125,0.249958333 C15.4214583,0.249958333 19.7497917,4.57704167 19.7497917,9.91620833" id="Fill-1"></path>
                    </g>
                </g>
                <g id="oat-cookie" transform="translate(4.000000, 4.000000)">
                    <g id="Group-3">
                        <mask id="mask-2" fill="white">
                            <use xlink:href="#path-1"></use>
                        </mask>
                        <g id="Clip-2"></g>
                        <path d="M12.9987669,6.42446612 C12.9963008,6.32360163 12.9398618,6.23165041 12.8509756,6.18363144 C12.7620542,6.13561247 12.6541789,6.13888889 12.5684282,6.19215718 C12.3614499,6.32071274 12.1225528,6.38853117 11.8771734,6.38853117 C11.1543875,6.38853117 10.565935,5.80201626 10.563187,5.08007588 C10.5636098,5.07317073 10.5637507,5.06644173 10.5637507,5.05995935 C10.5637507,4.97533604 10.5257724,4.89511653 10.4602439,4.8415664 C10.3947507,4.78805149 10.3085772,4.76684282 10.2257507,4.78378862 C10.1394715,4.80126287 10.0502683,4.81021138 9.96067751,4.81021138 C9.23613008,4.81021138 8.64672629,4.22091328 8.64672629,3.49647154 C8.64672629,3.35294309 8.67026016,3.21092954 8.71662331,3.07455285 C8.74082656,3.00324661 8.73547154,2.92524661 8.70189702,2.85781572 C8.66818157,2.79049051 8.60899458,2.73944173 8.53744173,2.71604878 C7.99591599,2.53880488 7.63205691,2.03691328 7.63205691,1.46730894 C7.63205691,1.14569106 7.74958537,0.836051491 7.96301084,0.595357724 C8.02991328,0.520070461 8.05136856,0.414802168 8.01959079,0.319151762 C7.98767209,0.223642276 7.90727642,0.152371274 7.80849051,0.132254743 C7.38047696,0.0448834688 6.94023848,0.000563685637 6.49985908,0.000563685637 C4.76367209,0.000563685637 3.1313794,0.676669377 1.90367209,1.90423577 C0.676105691,3.13194309 0,4.76423577 0,6.50042276 C0,8.23646883 0.676105691,9.86876152 1.90367209,11.0963279 C3.1313794,12.3238943 4.76367209,13 6.49985908,13 C8.23590515,13 9.86819783,12.3238943 11.0957642,11.0963279 C12.3233306,9.86865583 12.9994363,8.23646883 12.9994363,6.50042276 C12.9994363,6.47495122 12.9994363,6.44979675 12.9987669,6.42446612 L12.9987669,6.42446612 Z M6.49985908,12.4363144 C3.22660705,12.4363144 0.563685637,9.77353388 0.563685637,6.50042276 C0.563685637,4.91477507 1.18116802,3.42396748 2.30237398,2.30293767 C3.42354472,1.18173171 4.91421138,0.564249322 6.49985908,0.564249322 C6.75873171,0.564249322 7.01756911,0.581054201 7.27313008,0.614205962 C7.13950136,0.876355014 7.06837127,1.16813279 7.06837127,1.46730894 C7.06837127,2.1914336 7.47957995,2.83879133 8.11510027,3.15121409 C8.09375068,3.26486721 8.08289973,3.3803523 8.08289973,3.49661247 C8.08289973,4.53178591 8.92525745,5.37389702 9.96057182,5.37389702 C9.98146341,5.37389702 10.0022493,5.37361518 10.0231762,5.37291057 C10.1662818,6.26688076 10.9432873,6.9522168 11.8771734,6.9522168 C12.0637886,6.9522168 12.2480434,6.9247019 12.424336,6.87104607 C12.2323659,9.97212737 9.64843089,12.4363144 6.49985908,12.4363144 L6.49985908,12.4363144 Z" id="Fill-1" fill="#000000" mask="url(#mask-2)"></path>
                    </g>
                    <path d="M3.79621138,3.19070732 C3.2988645,3.19070732 2.8942439,3.59529268 2.8942439,4.09263957 C2.8942439,4.59002168 3.2988645,4.99460705 3.79621138,4.99460705 C4.29341734,4.99460705 4.69803794,4.59002168 4.69803794,4.09263957 C4.69803794,3.59529268 4.29341734,3.19070732 3.79621138,3.19070732 L3.79621138,3.19070732 Z M3.79621138,4.43092141 C3.60959621,4.43092141 3.45792954,4.27911382 3.45792954,4.09263957 C3.45792954,3.90616531 3.60959621,3.75439295 3.79621138,3.75439295 C3.98268564,3.75439295 4.1343523,3.90616531 4.1343523,4.09263957 C4.1343523,4.27911382 3.98268564,4.43092141 3.79621138,4.43092141 L3.79621138,4.43092141 Z" id="Fill-4" fill="#000000"></path>
                    <path d="M8.02716531,5.68709485 C7.5297832,5.68709485 7.12519783,6.09171545 7.12519783,6.58906233 C7.12519783,7.08640921 7.5297832,7.49099458 8.02716531,7.49099458 C8.5245122,7.49099458 8.92895664,7.08640921 8.92895664,6.58906233 C8.92895664,6.09171545 8.52437127,5.68709485 8.02716531,5.68709485 L8.02716531,5.68709485 Z M8.02716531,6.92730894 C7.84069106,6.92730894 7.68888347,6.77553659 7.68888347,6.58906233 C7.68888347,6.40258808 7.84069106,6.25078049 8.02716531,6.25078049 C8.21363957,6.25078049 8.365271,6.40258808 8.365271,6.58906233 C8.365271,6.77553659 8.21363957,6.92730894 8.02716531,6.92730894 L8.02716531,6.92730894 Z" id="Fill-5" fill="#000000"></path>
                    <path d="M7.82184282,8.99656369 C7.29338753,8.99656369 6.86357724,9.42633875 6.86357724,9.95479404 C6.86357724,10.4832493 7.29338753,10.9130244 7.82184282,10.9130244 C8.3502981,10.9130244 8.78007317,10.4832493 8.78007317,9.95479404 C8.78007317,9.42633875 8.3502981,8.99656369 7.82184282,8.99656369 L7.82184282,8.99656369 Z M7.82184282,10.3493388 C7.60426016,10.3493388 7.42726287,10.1723767 7.42726287,9.95479404 C7.42726287,9.73721138 7.60426016,9.56024932 7.82184282,9.56024932 C8.03939024,9.56024932 8.21638753,9.73721138 8.21638753,9.95479404 C8.21638753,10.1723767 8.03939024,10.3493388 7.82184282,10.3493388 L7.82184282,10.3493388 Z" id="Fill-6" fill="#000000"></path>
                    <path d="M3.2204065,7.923271 C2.78291599,7.923271 2.42691328,8.27927371 2.42691328,8.71690515 C2.42691328,9.15439566 2.78291599,9.5104336 3.2204065,9.5104336 C3.65803794,9.5104336 4.01407588,9.15453659 4.01407588,8.71690515 C4.01407588,8.27927371 3.65803794,7.923271 3.2204065,7.923271 L3.2204065,7.923271 Z M3.2204065,8.94674797 C3.0936477,8.94674797 2.99059892,8.84366396 2.99059892,8.71690515 C2.99059892,8.59004065 3.0936477,8.48695664 3.2204065,8.48695664 C3.34730623,8.48695664 3.45039024,8.59004065 3.45039024,8.71690515 C3.45039024,8.84366396 3.34730623,8.94674797 3.2204065,8.94674797 L3.2204065,8.94674797 Z" id="Fill-7" fill="#000000"></path>
                </g>
            </g>
        </g>
    </g>
</svg>