<?xml version="1.0" encoding="UTF-8" standalone="no"?>
<svg width="29px" height="30px" viewBox="0 0 29 30" version="1.1" xmlns="http://www.w3.org/2000/svg" xmlns:xlink="http://www.w3.org/1999/xlink">
    <!-- Generator: Sketch 40.3 (33839) - http://www.bohemiancoding.com/sketch -->
    <title>linked_in</title>
    <desc>Created with Sketch.</desc>
    <defs></defs>
    <g id="Final" stroke="none" stroke-width="1" fill="none" fill-rule="evenodd">
        <g id="Homepage-3.2." transform="translate(-1190.000000, -1571.000000)">
            <g id="linked_in" transform="translate(1190.000000, 1571.000000)">
                <g id="Group-3" transform="translate(0.000000, 0.250187)" fill="#A1CD69">
                    <path d="M28.629417,14.8743125 C28.629417,22.8830625 22.220417,29.3749375 14.3151404,29.3749375 C6.40924681,29.3749375 0.00024680851,22.8830625 0.00024680851,14.8743125 C0.00024680851,6.8655625 6.40924681,0.3749375 14.3151404,0.3749375 C22.220417,0.3749375 28.629417,6.8655625 28.629417,14.8743125" id="Fill-1"></path>
                </g>
                <path d="M7.78865957,11.774875 C7.76891489,13.988 7.56653191,16.184875 7.34378723,18.3855 C7.23087234,19.507375 6.83721277,21.006125 7.08834043,22.128 C7.43634043,23.683 9.58295745,23.651125 9.75695745,22.0055 C10.0796596,18.953625 10.5782128,15.833 10.6300426,12.759875 C10.643,12.028625 10.5535319,11.241125 9.94946809,10.776125 C9.37687234,10.33425 8.22365957,10.828625 7.82753191,11.293625 C7.569,11.59675 8.00338298,12.041125 8.26376596,11.7355 C8.74504255,11.171125 9.7267234,11.101125 9.94206383,11.896125 C10.0451064,12.2755 10.0136383,12.722375 10.0074681,13.112375 C9.99574468,13.80175 9.89702128,14.49175 9.81495745,15.174875 C9.58419149,17.09175 9.45831915,19.022375 9.22817021,20.94175 C9.21829787,21.064875 9.20842553,21.188 9.19855319,21.3105 C9.25408511,22.012375 8.79131915,22.372375 7.81148936,22.389875 C7.58689362,22.093 7.66278723,21.467375 7.68253191,21.107375 C7.72078723,20.402375 7.83,19.68925 7.90034043,18.986125 C8.1403617,16.5855 8.38408511,14.1905 8.40568085,11.774875 C8.40938298,11.37175 7.7923617,11.37175 7.78865957,11.774875" id="Fill-4" fill="#000000"></path>
                <path d="M7.89151702,7.4519375 C7.89830426,8.5094375 8.15621915,10.1569375 9.56672979,10.1244375 C10.8007723,10.0963125 10.733517,8.4394375 10.7470915,7.5463125 C10.7656021,6.2988125 10.0868787,5.4413125 8.7899,5.5706875 C7.56264468,5.6931875 7.50341064,7.0525625 7.69715532,8.0038125 C7.77675106,8.3981875 8.37155957,8.2306875 8.29196383,7.8375625 C8.15683617,7.1719375 8.0939,6.2650625 8.96821915,6.1781875 C9.97828298,6.0775625 10.1393255,6.9369375 10.1269851,7.7300625 C10.1201979,8.1769375 10.2059638,9.5994375 9.48713404,9.4850625 C8.53075106,9.3325625 8.51347447,8.2050625 8.5085383,7.4519375 C8.50607021,7.0488125 7.88904894,7.0488125 7.89151702,7.4519375" id="Fill-6" fill="#000000"></path>
                <path d="M13.3418511,22.6081875 C13.2912553,20.1425625 13.2474468,17.6781875 13.2906383,15.2125625 C13.3079149,14.2213125 13.1980851,13.2300625 13.2067234,12.2375625 L13.2351064,11.7438125 C13.1339149,10.5681875 13.602234,10.2700625 14.6382128,10.8488125 C14.7171915,11.2519375 14.7579149,11.5613125 14.9263617,11.9325625 C15.0152128,12.1275625 15.2737447,12.1163125 15.4113404,11.9956875 C16.1653404,11.3338125 16.472,10.2206875 17.485766,9.8888125 C18.850617,9.4419375 20.764617,10.1056875 21.1811064,11.5200625 C21.8758723,13.8806875 20.8688936,16.6994375 20.3894681,19.0175625 C20.2537234,19.6738125 20.1877021,20.3056875 20.153766,20.9738125 C20.126617,21.5025625 20.0920638,22.0244375 19.9902553,22.5450625 C19.5114468,23.0788125 19.0394255,23.0431875 18.5754255,22.4375625 C18.2897447,21.9731875 18.1848511,21.4844375 18.2613617,20.9719375 C18.3520638,19.2581875 18.9598298,17.5431875 19.1171702,15.8113125 C19.2158936,14.7250625 19.3349787,13.2213125 18.4631277,12.4050625 C17.6671702,11.6606875 16.2430851,12.5950625 15.6198936,13.1169375 C14.3013191,14.2219375 14.875766,16.8619375 14.849234,18.3800625 C14.8338085,19.2531875 14.8319574,20.1106875 14.8998298,20.9800625 C14.934383,21.4288125 14.9535106,21.8763125 14.9547447,22.3263125 C14.9572128,23.3219375 13.3375319,23.5288125 13.1764894,22.4731875 C13.1160213,22.0756875 12.5218298,22.2450625 12.5816809,22.6394375 C12.731,23.6194375 14.8004894,24.4150625 15.3564255,23.3906875 C15.7352766,22.6925625 15.5699149,21.7369375 15.5168511,20.9800625 C15.4181277,19.5756875 15.4718085,18.1744375 15.4934043,16.7669375 C15.5032766,16.1369375 15.4964894,15.5088125 15.4884681,14.8794375 C15.4724255,13.6700625 16.5034681,13.1538125 17.4493617,12.8050625 C18.8759149,12.2781875 18.5285319,15.4994375 18.472383,16.1138125 C18.3662553,17.2844375 18.1577021,18.4063125 17.8899149,19.5500625 C17.661617,20.5238125 17.4265319,21.6225625 17.8812766,22.5575625 C18.5279149,23.8888125 20.3518298,23.9094375 20.6405957,22.4275625 C20.8491489,21.3588125 20.7769574,20.2581875 20.9842766,19.1838125 C21.2539149,17.7881875 21.6302979,16.4125625 21.8160213,15.0006875 C22.098617,12.8569375 22.2553404,10.3506875 19.9501489,9.4450625 C19.0283191,9.0831875 17.8788085,9.1038125 16.9514255,9.4075625 C16.0339149,9.7075625 15.6476596,10.9638125 14.9744894,11.5538125 C15.1361489,11.5750625 15.2978085,11.5963125 15.4594681,11.6169375 C15.0324894,10.6769375 15.3613617,9.8488125 14.2149362,9.5475625 C13.3258085,9.3138125 12.8284894,10.5706875 12.6890426,11.1906875 C12.3225319,12.8169375 12.6760851,14.7006875 12.6563404,16.3594375 C12.6322766,18.4425625 12.6822553,20.5256875 12.7248298,22.6081875 C12.7328511,23.0106875 13.3498723,23.0113125 13.3418511,22.6081875" id="Fill-8" fill="#000000"></path>
            </g>
        </g>
    </g>
</svg>