<?xml version="1.0" encoding="UTF-8" standalone="no"?>
<svg width="51px" height="51px" viewBox="0 0 51 51" version="1.1" xmlns="http://www.w3.org/2000/svg" xmlns:xlink="http://www.w3.org/1999/xlink">
    <!-- Generator: Sketch 40.3 (33839) - http://www.bohemiancoding.com/sketch -->
    <title>whisk-cooking-tool</title>
    <desc>Created with Sketch.</desc>
    <defs>
        <polygon id="path-1" points="25.4433581 0.0469736842 0.08 0.0469736842 0.08 51 50.8067162 51 50.8067162 0.0469736842 25.4433581 0.0469736842"></polygon>
    </defs>
    <g id="Final" stroke="none" stroke-width="1" fill="none" fill-rule="evenodd">
        <g id="Homepage-3.2." transform="translate(-871.000000, -52.000000)">
            <g id="whisk-cooking-tool" transform="translate(896.500000, 77.500000) scale(-1, 1) translate(-896.500000, -77.500000) translate(871.000000, 52.000000)">
                <path d="M29.4586667,30.5852368 C29.1826667,30.5852368 28.912,30.4805526 28.7026667,30.2711842 L26.9373333,28.4942368 C26.5213333,28.0741579 26.5213333,27.3923684 26.9373333,26.9736316 C27.3546667,26.5535526 28.0266667,26.5535526 28.4426667,26.9736316 L30.2133333,28.7505789 C30.6306667,29.1693158 30.6306667,29.8511053 30.2133333,30.2711842 C30,30.4805526 29.7293333,30.5852368 29.4586667,30.5852368 L29.4586667,30.5852368 Z" id="Fill-1" fill="#1E3245"></path>
                <g id="Group-5">
                    <mask id="mask-2" fill="white">
                        <use xlink:href="#path-1"></use>
                    </mask>
                    <g id="Clip-3"></g>
                    <path d="M47.932,51 C46.812,51 45.484,50.3396842 44.3853333,49.2284211 L30.0933333,34.8423947 C28.9893333,33.7365 28.3333333,32.3997632 28.3333333,31.2723947 C28.3333333,30.6429474 28.5413333,30.1087895 28.9266667,29.7155526 L29.6613333,28.9814211 C30.7453333,27.8902895 33.0413333,28.4257895 34.7546667,30.1503947 L49.0466667,44.5417895 C49.828,45.3228947 50.396,46.2395526 50.656,47.1159474 C50.9586667,48.1695 50.8026667,49.0713947 50.2133333,49.6632632 L49.4786667,50.4027632 C49.088,50.796 48.5573333,51 47.932,51 L47.932,51 Z M31.208,29.9933684 C31.0733333,29.9933684 30.896,30.0135 30.792,30.1181842 L30.0573333,30.8576842 C29.9586667,30.957 29.932,31.1408684 29.932,31.2723947 C29.932,31.7958158 30.2706667,32.7446842 31.224,33.7042895 L45.516,48.0903158 C46.4693333,49.0499211 47.412,49.3908158 47.932,49.3908158 C48.068,49.3908158 48.2453333,49.3639737 48.3493333,49.2646579 L49.0786667,48.5251579 C49.2346667,48.3735 49.2453333,48.0071053 49.12,47.5709211 C48.9373333,46.9522105 48.5,46.2610263 47.9173333,45.6731842 L33.6253333,31.2885 C32.672,30.3342632 31.7293333,29.9933684 31.208,29.9933684 L31.208,29.9933684 Z" id="Fill-2" fill="#1E3245" mask="url(#mask-2)"></path>
                    <path d="M24.6826667,28.6244211 C18.588,28.6244211 6.38,21.8454474 3.19733333,18.6431842 C-1.07333333,14.3444211 -1.068,7.59631579 3.21333333,3.29218421 C5.292,1.20118421 8.00533333,0.0469736842 10.86,0.0469736842 C13.688,0.0469736842 16.3853333,1.19581579 18.4586667,3.28681579 C22.312,7.16147368 31.604,23.6707105 27.64,27.6554211 C27.0053333,28.2996316 26.0106667,28.6244211 24.6826667,28.6244211 L24.6826667,28.6244211 Z M10.86,1.122 C8.292,1.122 5.844,2.15944737 3.96933333,4.04778947 C0.0466666667,7.99492105 0.0413333333,13.9458158 3.95333333,17.8822105 C6.95333333,20.9019474 18.9373333,27.5493947 24.6826667,27.5493947 C25.7133333,27.5493947 26.4586667,27.3292895 26.8853333,26.8944474 C29.8906667,23.8747105 22.088,8.45660526 17.7026667,4.04242105 C15.8333333,2.15944737 13.4013333,1.122 10.86,1.122 L10.86,1.122 Z" id="Fill-4" fill="#1E3245" mask="url(#mask-2)"></path>
                    <path d="M31.208,29.9933684 C31.0733333,29.9933684 30.896,30.0135 30.792,30.1181842 L30.0573333,30.8576842 C29.9586667,30.957 29.932,31.1408684 29.932,31.2723947 C29.932,31.7958158 30.2706667,32.7446842 31.224,33.7042895 L45.516,48.0903158 C46.4693333,49.0499211 47.412,49.3908158 47.932,49.3908158 C48.068,49.3908158 48.2453333,49.3639737 48.3493333,49.2646579 L49.0786667,48.5251579 C49.2346667,48.3735 49.2453333,48.0071053 49.12,47.5709211 C48.9373333,46.9522105 48.5,46.2610263 47.9173333,45.6731842 L33.6253333,31.2885 C32.672,30.3342632 31.7293333,29.9933684 31.208,29.9933684 L31.208,29.9933684 Z" id="Path" fill="#9CD9F5" mask="url(#mask-2)"></path>
                </g>
                <path d="M25.9066667,28.1788421 C20.8173333,28.1788421 8.26,19.6913684 5.25066667,16.8125526 C3.396,15.0409737 1.21866667,11.7796579 1.17733333,8.42976316 C1.15066667,6.47431579 1.844,4.77118421 3.24533333,3.366 C3.45333333,3.15663158 3.792,3.15663158 4,3.366 C4.208,3.57536842 4.208,3.91626316 4,4.12563158 C2.812,5.32144737 2.224,6.76286842 2.24,8.415 C2.28133333,11.4347368 4.28133333,14.4061579 5.984,16.0368158 C10.3226667,20.1892895 24.8026667,28.8968684 26.8066667,26.8729737 C27.016,26.6636053 27.3546667,26.6636053 27.5626667,26.8729737 C27.7706667,27.0836842 27.7706667,27.4245789 27.5626667,27.6339474 C27.1933333,28.0110789 26.62,28.1788421 25.9066667,28.1788421 L25.9066667,28.1788421 Z" id="Fill-6" fill="#1E3245"></path>
                <path d="M26.9066667,27.9332368 C26.136,27.9332368 24.172,27.0675789 18.188,22.695 C13.724,19.4390526 9.30266667,15.8489211 7.42666667,13.9605789 C6.01066667,12.5298947 4.56266667,10.3758158 3.656,8.33044737 C2.90666667,6.64207895 2.22933333,4.40881579 3.276,3.36063158 C3.484,3.15126316 3.82266667,3.15126316 4.03066667,3.36063158 C4.24,3.57 4.24,3.91089474 4.03066667,4.12026316 C3.66133333,4.49336842 3.69733333,5.80326316 4.63066667,7.89023684 C5.48933333,9.82421053 6.84933333,11.8588421 8.18266667,13.2009474 C12.2346667,17.2796053 25.088,26.6904474 26.8026667,26.8474737 C27,26.7427895 27.2546667,26.7736579 27.4213333,26.9467895 C27.6306667,27.1561579 27.6306667,27.4970526 27.4213333,27.7077632 C27.3226667,27.8124474 27.1973333,27.9332368 26.9066667,27.9332368 L26.9066667,27.9332368 Z" id="Fill-7" fill="#1E3245"></path>
                <g id="Group-11" transform="translate(2.666667, 1.000000)" fill="#1E3245">
                    <path d="M24.38,26.8647895 C24.24,26.8647895 24.104,26.8124474 24,26.7077632 C23.8333333,26.5346316 23.8026667,26.2823158 23.9066667,26.0783158 C23.7653333,24.3429737 14.5266667,11.4413158 10.5053333,7.39889474 C9.172,6.05678947 7.12533333,4.67307895 5.15066667,3.79131579 C3.02133333,2.83707895 1.69333333,2.78473684 1.32266667,3.16321053 C1.11466667,3.37257895 0.776,3.37257895 0.568,3.16321053 C0.36,2.9525 0.36,2.61160526 0.568,2.40223684 C1.61466667,1.34868421 3.87466667,2.04121053 5.588,2.81157895 C7.66666667,3.74434211 9.844,5.20723684 11.26,6.63792105 C13.12,8.51015789 16.6613333,12.9511842 19.86,17.4378421 C25.7546667,25.7011842 25.1306667,26.3292895 24.7546667,26.7077632 C24.6506667,26.8124474 24.516,26.8647895 24.38,26.8647895 L24.38,26.8647895 Z" id="Fill-8"></path>
                    <path d="M24.3066667,27.0057105 C24.172,27.0057105 24.0306667,26.9533684 23.9266667,26.8486842 C23.7186667,26.6393158 23.7186667,26.2984211 23.9266667,26.0890526 C24.156,25.8635789 24.2026667,25.4233684 24.2026667,25.0972368 C24.1933333,20.8199474 16.4533333,8.41621053 13.172,5.13878947 C10.7706667,2.74313158 5.19733333,-0.769157895 1.33333333,3.12563158 C1.12533333,3.33634211 0.786666667,3.33634211 0.578666667,3.12563158 C0.369333333,2.91626316 0.369333333,2.57536842 0.578666667,2.366 C5.036,-2.12736842 11.26,1.71507895 13.9266667,4.37915789 C17.0986667,7.54518421 25.2546667,20.1542632 25.2653333,25.0972368 C25.2706667,25.8689474 25.0733333,26.4554474 24.6826667,26.8486842 C24.5786667,26.9533684 24.4426667,27.0057105 24.3066667,27.0057105 L24.3066667,27.0057105 Z" id="Fill-10"></path>
                </g>
                <path d="M26.812,27.6285789 C26.6773333,27.6285789 26.536,27.5762368 26.432,27.4715526 L3.37466667,4.20481579 C3.16666667,3.99544737 3.16666667,3.65992105 3.37466667,3.44921053 C3.584,3.23984211 3.92133333,3.23984211 4.13066667,3.44921053 L27.188,26.7105789 C27.396,26.9212895 27.396,27.2621842 27.188,27.4715526 C27.0826667,27.5762368 26.948,27.6285789 26.812,27.6285789 L26.812,27.6285789 Z" id="Fill-12" fill="#1E3245"></path>
                <path d="M47.4066667,46.5697105 C47.4066667,47.1199737 46.964,47.5615263 46.4213333,47.5615263 C45.8746667,47.5615263 45.432,47.1199737 45.432,46.5697105 C45.432,46.0194474 45.8746667,45.5738684 46.4213333,45.5738684 C46.964,45.5738684 47.4066667,46.0194474 47.4066667,46.5697105 L47.4066667,46.5697105 Z" id="Fill-13" fill="#1E3245"></path>
            </g>
        </g>
    </g>
</svg>