<?xml version="1.0" encoding="UTF-8" standalone="no"?>
<svg width="29px" height="30px" viewBox="0 0 29 30" version="1.1" xmlns="http://www.w3.org/2000/svg" xmlns:xlink="http://www.w3.org/1999/xlink">
    <!-- Generator: Sketch 40.3 (33839) - http://www.bohemiancoding.com/sketch -->
    <title>twitter</title>
    <desc>Created with Sketch.</desc>
    <defs></defs>
    <g id="Final" stroke="none" stroke-width="1" fill="none" fill-rule="evenodd">
        <g id="Homepage-3.2." transform="translate(-1140.000000, -1571.000000)">
            <g id="twitter" transform="translate(1140.000000, 1571.000000)">
                <g id="Group-3" transform="translate(0.000000, 0.250187)" fill="#EEBD30">
                    <path d="M28.630034,14.8743125 C28.630034,22.8830625 22.220417,29.3749375 14.3151404,29.3749375 C6.40924681,29.3749375 0.00024680851,22.8830625 0.00024680851,14.8743125 C0.00024680851,6.8655625 6.40924681,0.3749375 14.3151404,0.3749375 C22.220417,0.3749375 28.630034,6.8655625 28.630034,14.8743125" id="Fill-1"></path>
                </g>
                <path d="M9.06490638,10.1623125 C8.80328936,10.4566875 8.57375745,10.6835625 8.38309787,10.9385625 C8.19737447,11.1866875 7.96969362,11.4448125 7.89750213,11.7335625 C7.46311915,13.4791875 8.51082128,16.0010625 10.0521404,16.8935625 C10.503183,17.1548125 10.6722468,17.4316875 10.5519277,17.9479375 C10.4248213,18.4948125 10.0249915,18.4666875 9.63256596,18.4716875 C8.85018298,18.4804375 8.06841702,18.4741875 7.17620426,18.4741875 C7.34958723,19.0660625 7.46311915,19.6535625 7.68956596,20.1923125 C8.13814043,21.2523125 8.87424681,22.0891875 9.92565106,22.5554375 C12.2043106,23.5660625 14.5175234,23.6729375 16.7733532,22.5204375 C18.3159064,21.7323125 19.7591191,20.7223125 19.9232468,18.7841875 C20.0392468,17.4060625 19.9257149,16.0048125 19.8652468,14.6160625 C19.7838,12.7066875 19.6437362,10.7985625 20.7266085,9.0785625 C20.8315021,8.9123125 20.9185021,8.7341875 21.0326511,8.5266875 C19.7862681,7.4866875 18.3967362,6.9179375 16.7906298,6.9591875 C15.1166511,7.0029375 13.810417,8.1779375 13.5346085,9.8598125 C13.4519277,10.3585625 13.3599915,10.8566875 13.2662043,11.3879375 C11.6496085,11.4423125 10.3038851,10.8173125 9.06490638,10.1623125 M8.67433191,17.3185625 C7.34588511,15.8860625 6.99603404,14.1004375 6.88497021,12.2548125 C6.82326809,11.2304375 6.8788,10.1966875 6.93186383,9.1685625 C6.95037447,8.8223125 7.07871489,8.4629375 7.23482128,8.1479375 C7.55690638,7.4998125 7.92835319,7.4716875 8.38741702,8.0148125 C9.63318298,9.4910625 10.3069702,9.8716875 12.3968213,10.2785625 C12.6596723,9.5960625 12.8737787,8.8866875 13.1958638,8.2310625 C14.1738426,6.2448125 15.9582681,5.8104375 17.8864596,6.0204375 C19.5413106,6.2010625 20.8543319,7.2479375 22.2586723,8.0404375 C22.4005872,8.1216875 22.453034,8.3691875 22.5647149,8.5716875 C20.4248851,10.5041875 20.5569277,12.9948125 20.8092894,15.5341875 C20.9956298,17.4091875 21.0801617,19.2898125 20.0941617,21.0098125 C19.900417,21.3485625 19.6610128,21.6798125 19.3778,21.9423125 C17.2188426,23.9429375 14.7340979,24.8829375 11.7841191,24.2966875 C10.3736085,24.0173125 9.05997021,23.6004375 8.03571489,22.4660625 C6.8004383,21.0973125 6.44997021,19.3885625 6.08345957,17.6791875 C5.99090638,17.2448125 6.26609787,17.0091875 6.7338,17.1216875 C7.33601277,17.2673125 7.93945957,17.4123125 8.54167234,17.5573125 C8.58609787,17.4779375 8.6305234,17.3985625 8.67433191,17.3185625" id="Fill-4" fill="#000000"></path>
                <path d="M17.5422851,11.0949375 C17.0320085,11.0811875 16.7234979,10.7799375 16.7148596,10.2868125 C16.7074553,9.8355625 17.0961787,9.4043125 17.5015617,9.4149375 C18.0167745,9.4286875 18.5424766,9.8974375 18.5659234,10.3636875 C18.5875191,10.8018125 18.1549872,11.1099375 17.5422851,11.0949375" id="Fill-6" fill="#000000"></path>
            </g>
        </g>
    </g>
</svg>