<?xml version="1.0" encoding="UTF-8" standalone="no"?>
<svg width="20px" height="20px" viewBox="0 0 20 20" version="1.1" xmlns="http://www.w3.org/2000/svg" xmlns:xlink="http://www.w3.org/1999/xlink">
    <!-- Generator: Sketch 40.3 (33839) - http://www.bohemiancoding.com/sketch -->
    <title>email</title>
    <desc>Created with Sketch.</desc>
    <defs></defs>
    <g id="Final" stroke="none" stroke-width="1" fill="none" fill-rule="evenodd">
        <g id="Homepage-3.2." transform="translate(-444.000000, -1577.000000)">
            <g id="email" transform="translate(444.000000, 1577.000000)">
                <g id="Group-3" transform="translate(0.000000, 0.166792)" fill="#EEBD30">
                    <path d="M19.7448511,9.91620833 C19.7448511,15.255375 15.3244255,19.5832917 9.87251064,19.5832917 C4.42017021,19.5832917 0.000170212767,15.255375 0.000170212767,9.91620833 C0.000170212767,4.57704167 4.42017021,0.249958333 9.87251064,0.249958333 C15.3244255,0.249958333 19.7448511,4.57704167 19.7448511,9.91620833" id="Fill-1"></path>
                </g>
                <path d="M4.31502128,6.28741667 C4.30608511,7.667 4.25544681,9.04575 4.25246809,10.4253333 C4.25076596,11.2515833 4.14395745,12.31825 4.4992766,13.0999167 C5.03587234,14.28075 6.21502128,14.2753333 7.38821277,14.252 C10.1745957,14.197 14.765234,15.7378333 15.4205532,11.97825 C15.6673617,10.5628333 15.7103404,9.07241667 15.9026809,7.642 C16.0303404,6.68991667 16.2094894,5.59408333 15.1439574,5.18075 C13.9414043,4.71408333 12.190766,5.19866667 10.9588511,5.3745 C8.80523404,5.68116667 6.62693617,5.35033333 4.47842553,5.70825 C4.07331915,5.77575 4.24565957,6.37825 4.64821277,6.31116667 C6.42821277,6.01408333 8.23076596,6.2145 10.024383,6.11366667 C10.9601277,6.06116667 11.8945957,5.85991667 12.8256596,5.75783333 C14.0082128,5.62866667 15.4056596,5.38825 15.3465106,6.92283333 C15.3065106,7.97325 14.964383,8.98866667 14.9124681,10.0411667 C14.8409787,11.4849167 15.0277872,13.3424167 13.2018298,13.7561667 C11.7218298,14.0915833 10.0265106,13.7036667 8.53204255,13.6215833 C7.12225532,13.5440833 5.19246809,14.1253333 4.95331915,12.1903333 C4.71417021,10.2540833 4.94055319,8.232 4.95331915,6.28741667 C4.95587234,5.88408333 4.31757447,5.8845 4.31502128,6.28741667" id="Fill-4" fill="#000000"></path>
                <path d="M4.47940426,6.57783333 C6.15089362,8.0195 8.05642553,9.16408333 9.72748936,10.60575 C9.856,10.7161667 10.0530213,10.7345 10.1789787,10.60575 C11.7594043,8.99033333 13.6981277,7.77158333 15.2142979,6.09158333 C15.4857872,5.79075 15.036,5.34741667 14.763234,5.64991667 C13.3640851,7.19991667 11.609617,8.35741667 10.0947234,9.78825 C9.72280851,10.1399167 5.27259574,6.43075 4.93089362,6.13575 C4.62323404,5.87075 4.17004255,6.31075 4.47940426,6.57783333" id="Fill-6" fill="#000000"></path>
            </g>
        </g>
    </g>
</svg>