<?xml version="1.0" encoding="UTF-8" standalone="no"?>
<svg width="29px" height="30px" viewBox="0 0 29 30" version="1.1" xmlns="http://www.w3.org/2000/svg" xmlns:xlink="http://www.w3.org/1999/xlink">
    <!-- Generator: Sketch 40.3 (33839) - http://www.bohemiancoding.com/sketch -->
    <title>facebook</title>
    <desc>Created with Sketch.</desc>
    <defs></defs>
    <g id="Final" stroke="none" stroke-width="1" fill="none" fill-rule="evenodd">
        <g id="Homepage-3.2." transform="translate(-1038.000000, -1571.000000)">
            <g id="facebook" transform="translate(1038.000000, 1571.000000)">
                <g id="Group-3" transform="translate(0.000000, 0.250187)" fill="#9CD9F5">
                    <path d="M28.6299723,14.8743125 C28.6299723,22.8830625 22.2203553,29.3749375 14.3150787,29.3749375 C6.40918511,29.3749375 0.000185106383,22.8830625 0.000185106383,14.8743125 C0.000185106383,6.8655625 6.40918511,0.3749375 14.3150787,0.3749375 C22.2203553,0.3749375 28.6299723,6.8655625 28.6299723,14.8743125" id="Fill-1"></path>
                </g>
                <path d="M11.2738426,23.8964375 C12.1765447,24.5826875 13.0539489,24.5114375 13.9153106,24.4995625 C15.3369277,24.4776875 15.868183,23.8658125 15.7275021,22.3939375 C15.5862043,20.9320625 15.4214596,19.4726875 15.2758426,18.0120625 C15.172183,16.9720625 15.3986298,16.6551875 16.4555872,16.5439375 C17.1158,16.4758125 17.7889702,16.5614375 18.4541191,16.5320625 C19.376566,16.4914375 19.7930553,16.0133125 19.784417,15.0708125 C19.7782468,14.5014375 19.3852043,14.2089375 18.5040979,14.1858125 C17.8741191,14.1695625 17.2429064,14.2245625 16.6123106,14.2208125 C15.5639915,14.2139375 14.9821404,13.7208125 14.8846511,12.6676875 C14.8001191,11.7514375 14.8828,10.8458125 15.2838638,9.9814375 C15.6269277,9.2420625 16.2371617,8.9145625 16.9615447,8.8564375 C17.7167787,8.7939375 18.3486085,9.1126875 18.6898213,9.8595625 C18.8045872,10.1120625 18.9039277,10.3726875 19.0205447,10.6251875 C19.318566,11.2695625 19.9374383,11.4914375 20.567417,11.1851875 C21.5472468,10.7076875 22.1142894,9.2189375 21.6441191,8.1945625 C21.2165234,7.2645625 20.5186723,6.5383125 19.5727787,6.1620625 C18.2616085,5.6414375 16.883183,5.5614375 15.5016723,5.8251875 C13.9875021,6.1158125 13.0298851,7.0401875 12.7571617,8.5783125 C12.5430553,9.7895625 12.4430979,11.0201875 12.2857574,12.2426875 C12.2277574,12.6895625 12.1537149,13.1345625 12.1080553,13.4339375 C10.9054809,13.4339375 9.88554468,13.3926875 8.87054468,13.4445625 C7.72103404,13.5033125 6.97690638,15.0451875 7.62971489,15.9926875 C7.76669362,16.1908125 8.06533191,16.3351875 8.31214043,16.3833125 C8.85141702,16.4870625 9.42031064,16.6226875 9.95033191,16.5489375 C11.519417,16.3314375 11.5805021,17.0508125 11.5712468,18.2976875 C11.5693957,18.5339375 11.4712894,18.7683125 11.461417,19.0051875 C11.3916936,20.6683125 11.3330766,22.3314375 11.2738426,23.8964375 M15.9878851,17.5895625 C16.0699489,18.1908125 16.1353532,18.6545625 16.1976723,19.1195625 C16.3926511,20.5801875 16.6086085,22.0395625 16.3809277,23.5189375 C16.1760766,24.8433125 15.6195234,25.4089375 14.2762681,25.4583125 C13.4580979,25.4876875 12.6140128,25.4633125 11.8192894,25.2883125 C10.6660766,25.0333125 10.387183,24.6239375 10.4328426,23.4276875 C10.4951617,21.7995625 10.6327574,20.1726875 10.7314809,18.5445625 C10.7493745,18.2458125 10.7339489,17.9458125 10.7339489,17.5220625 C10.0509064,17.5220625 9.50545957,17.5501875 8.96433191,17.5170625 C6.72145957,17.3814375 5.91748085,16.0914375 6.73997021,13.9545625 C6.99911915,13.2814375 7.44769362,12.7783125 8.19367234,12.7039375 C9.20435319,12.6020625 10.2193532,12.5539375 11.343566,12.4758125 C11.489183,11.4745625 11.6366511,10.4201875 11.8007787,9.3676875 C11.8748213,8.8964375 11.983417,8.4314375 12.0753532,7.9633125 C12.4967787,5.8076875 14.2120979,4.9120625 16.2402468,4.7995625 C18.1270979,4.6958125 19.9497787,4.9651875 21.4516085,6.2889375 C23.003417,7.6564375 23.2718213,10.4089375 21.2498426,11.8808125 C20.6593532,12.3108125 19.9948213,12.3389375 19.3253532,12.2389375 C18.8829489,12.1726875 18.5164383,11.9333125 18.3794596,11.4470625 C18.3251617,11.2558125 18.2511191,11.0708125 18.1746085,10.8883125 C17.9549489,10.3664375 17.7420766,9.8183125 17.0528638,9.8226875 C16.4037574,9.8264375 16.0366298,10.3026875 15.8416511,10.8164375 C15.667034,11.2770625 15.607183,11.8264375 15.6559277,12.3208125 C15.7312043,13.0958125 16.0650128,13.3251875 16.8455447,13.3414375 C17.6705021,13.3589375 18.4966936,13.3889375 19.3222681,13.3864375 C19.9905021,13.3833125 20.3798426,13.7851875 20.5131191,14.3508125 C20.6865021,15.0914375 20.6667574,15.8545625 20.2681617,16.5601875 C19.929417,17.1595625 19.4857787,17.5489375 18.7583106,17.5058125 C18.247417,17.4758125 17.7352894,17.4464375 17.2243957,17.4558125 C16.8492468,17.4633125 16.476566,17.5339375 15.9878851,17.5895625" id="Fill-4" fill="#000000"></path>
            </g>
        </g>
    </g>
</svg>