<?xml version="1.0" encoding="UTF-8" standalone="no"?>
<svg width="20px" height="20px" viewBox="0 0 20 20" version="1.1" xmlns="http://www.w3.org/2000/svg" xmlns:xlink="http://www.w3.org/1999/xlink">
    <!-- Generator: Sketch 40.3 (33839) - http://www.bohemiancoding.com/sketch -->
    <title>phone</title>
    <desc>Created with Sketch.</desc>
    <defs></defs>
    <g id="Final" stroke="none" stroke-width="1" fill="none" fill-rule="evenodd">
        <g id="Homepage-3.2." transform="translate(-444.000000, -1608.000000)">
            <g id="phone" transform="translate(444.000000, 1608.000000)">
                <g id="Group-3" transform="translate(0.000000, 0.166792)" fill="#A1CD69">
                    <path d="M19.7444255,9.91620833 C19.7444255,15.255375 15.3244255,19.5832917 9.87251064,19.5832917 C4.42017021,19.5832917 0.000170212767,15.255375 0.000170212767,9.91620833 C0.000170212767,4.57704167 4.42017021,0.249958333 9.87251064,0.249958333 C15.3244255,0.249958333 19.7444255,4.57704167 19.7444255,9.91620833" id="Fill-1"></path>
                </g>
                <path d="M13.557617,14.43325 C12.5831489,14.6499167 11.6682553,14.3624167 10.8171915,13.8874167 C9.45123404,13.12075 8.1746383,12.3374167 7.18314894,11.12075 C5.90655319,9.55825 4.74059574,8.26658333 5.20868085,6.10825 C5.37038298,5.36658333 5.96187234,4.86241667 6.60442553,4.89991667 C7.74910638,4.96658333 8.96187234,6.30825 7.56187234,7.85408333 C7.51931915,7.89991667 7.4852766,8.00408333 7.48102128,8.00408333 C7.48102128,8.00408333 7.47251064,8.04991667 7.46825532,8.07491667 C7.39165957,8.78325 7.79591489,9.10408333 8.29804255,9.58741667 C9.10229787,10.3665833 9.80017021,10.9915833 10.7448511,11.6040833 C11.0214468,11.7790833 11.4597447,12.2874167 11.864,12.0540833 C12.3363404,11.78325 12.8214468,10.5415833 13.664,11.3124167 C14.0171915,11.63325 14.3363404,12.00825 14.6810213,12.3374167 C15.676766,13.2915833 14.3278298,14.25825 13.557617,14.43325 M15.6001702,12.5290833 C15.1874043,11.8374167 13.8937872,10.0874167 12.8895319,10.35825 C11.9959149,10.5999167 12.0001702,11.7499167 11.0682553,11.0624167 C10.3661277,10.54575 8.14910638,9.29158333 8.10655319,8.19158333 C8.96187234,7.24575 9.47251064,6.58325 8.55761702,5.44991667 C7.63421277,4.31658333 6.56612766,3.48325 5.3533617,4.57491667 C4.17038298,5.64158333 4.25548936,7.77491667 4.88102128,9.07491667 C5.7746383,10.9290833 7.4427234,12.5874167 9.20017021,13.67075 C10.8427234,14.6790833 12.1448511,15.3874167 14.0980426,14.9499167 C14.9746383,14.7540833 16.157617,13.4665833 15.6001702,12.5290833" id="Fill-4" fill="#1D1D1B"></path>
            </g>
        </g>
    </g>
</svg>