<?xml version="1.0" encoding="UTF-8" standalone="no"?>
<svg width="63px" height="55px" viewBox="0 0 63 55" version="1.1" xmlns="http://www.w3.org/2000/svg" xmlns:xlink="http://www.w3.org/1999/xlink">
    <!-- Generator: sketchtool 40.3 (33839) - http://www.bohemiancoding.com/sketch -->
    <title>41913F7C-C526-4112-AC87-B62C471B1F21</title>
    <desc>Created with sketchtool.</desc>
    <defs></defs>
    <g id="Final" stroke="none" stroke-width="1" fill="none" fill-rule="evenodd" opacity="0.321595149">
        <g id="Testimonials" transform="translate(-182.000000, -429.000000)" fill="#76BDDD">
            <g id="quotations-copy-2" transform="translate(213.500000, 456.500000) rotate(-180.000000) translate(-213.500000, -456.500000) translate(182.000000, 429.000000)">
                <path d="M18.7097143,3.757 L16.8834286,2.47133333 L16.8445714,2.43266667 L16.7377143,2.35533333 L15.4068571,1.756 L15.4457143,1.82366667 C14.1925714,1.34033333 12.8617143,0.963333333 11.4628571,0.963333333 C5.11942857,0.963333333 0,6.24133333 0,12.776 C0,19.3106667 5.11942857,24.637 11.4628571,24.637 C13.4737143,24.637 15.3291429,24.028 17,23.0903333 C16.4268571,29.393 13.2405714,38.644 1.51542857,48.0496667 C-0.155428571,49.3643333 -0.456571429,51.781 0.835428571,53.4823333 C1.59314286,54.4683333 2.69085714,54.9903333 3.79828571,54.9903333 C4.63371429,54.9903333 5.43028571,54.7293333 6.11028571,54.1686667 C20.5262857,42.6073333 24.0914286,30.756 24.5868571,22.8196667 C25.4222857,12.6696667 22.3137143,7.34333333 19.5062857,4.54966667 L18.7097143,3.757 Z" id="Fill-1"></path>
                <path d="M57.188,4.54966667 L56.3914286,3.757 L54.5651429,2.47133333 L54.4874286,2.43266667 L54.3805714,2.35533333 L53.0497143,1.756 L53.0885714,1.82366667 C51.8354286,1.34033333 50.5434286,0.963333333 49.1057143,0.963333333 C42.8011429,0.963333333 37.6817143,6.24133333 37.6817143,12.776 C37.6817143,19.3106667 42.7622857,24.637 49.1057143,24.637 C51.1554286,24.637 53.0108571,24.028 54.6817143,23.0903333 C54.1085714,29.393 50.9222857,38.644 39.1582857,48.0496667 C37.5262857,49.3643333 37.2251429,51.781 38.5171429,53.4823333 C39.236,54.4683333 40.3725714,54.9903333 41.48,54.9903333 C42.3057143,54.9903333 43.112,54.7293333 43.792,54.1686667 C58.208,42.6073333 61.7731429,30.756 62.2685714,22.8196667 C63.104,12.6696667 59.9954286,7.34333333 57.188,4.54966667 L57.188,4.54966667 Z" id="Fill-3"></path>
            </g>
        </g>
    </g>
</svg>