<?xml version="1.0" encoding="UTF-8" standalone="no"?>
<svg width="46px" height="53px" viewBox="0 0 46 53" version="1.1" xmlns="http://www.w3.org/2000/svg" xmlns:xlink="http://www.w3.org/1999/xlink">
    <!-- Generator: Sketch 40.3 (33839) - http://www.bohemiancoding.com/sketch -->
    <title>kitchen</title>
    <desc>Created with Sketch.</desc>
    <defs>
        <polygon id="path-1" points="23.5958182 49 0.0654545455 49 0.0654545455 0.110267759 47.1261818 0.110267759 47.1261818 49"></polygon>
    </defs>
    <g id="Final" stroke="none" stroke-width="1" fill="none" fill-rule="evenodd">
        <g id="Homepage-3.2." transform="translate(-530.000000, -47.000000)">
            <g id="kitchen" transform="translate(553.757595, 69.437310) rotate(29.000000) translate(-553.757595, -69.437310) translate(529.757595, 44.937310)">
                <g id="Group-3" transform="translate(-0.000000, -0.000000)">
                    <mask id="mask-2" fill="white">
                        <use xlink:href="#path-1"></use>
                    </mask>
                    <g id="Clip-2"></g>
                    <path d="M47.1261818,35.6666667 L41.8930909,35.6666667 L41.8930909,16.5177778 C41.8930909,12.1333333 40.116,7.83666667 37.0145455,4.72 C34.0014545,1.69555556 30.0850909,0.0677777778 25.9690909,0.111111111 C17.4250909,0.227777778 10.4749091,7.40666667 10.4749091,16.1088889 L10.4749091,19.9333333 C8.10109091,18.1844444 4.87527273,18.1277778 2.56909091,19.9244444 C1.06909091,21.0966667 0.140727273,22.8666667 0.0130909091,24.7855556 C-0.111272727,26.7077778 0.579272727,28.5877778 1.91345455,29.9466667 C1.96036364,29.9944444 6.62618182,34.6644444 9.15381818,37.0944444 C9.99272727,37.9022222 10.4749091,39.0388889 10.4749091,40.22 L10.4749091,49 L41.8930909,49 L41.8930909,41.0011111 L47.1261818,41.0011111 L47.1261818,35.6666667 Z M12.2170909,47.22 L40.1465455,47.22 L40.1465455,43.6655556 L12.2170909,43.6655556 L12.2170909,47.22 Z M40.1465455,41.8866667 L12.2170909,41.8866667 L12.2170909,40.22 C12.2170909,38.5533333 11.5396364,36.9422222 10.3505455,35.8011111 C7.83709091,33.3833333 3.18763636,28.7266667 3.14509091,28.6833333 C2.16872727,27.6933333 1.66581818,26.3133333 1.75527273,24.8988889 C1.84909091,23.4744444 2.51454545,22.2077778 3.63054545,21.3355556 C5.52654545,19.8555556 8.30072727,20.1111111 10.0821818,21.9255556 C10.2098182,22.0511111 10.3636364,22.1377778 10.5250909,22.2033333 L13.572,25.02 C13.7389091,25.1722222 13.9516364,25.25 14.16,25.25 C14.3989091,25.25 14.6334545,25.15 14.808,24.9544444 C15.132,24.5944444 15.1025455,24.03 14.7490909,23.7 L12.1745455,21.3266667 C12.1963636,21.2266667 12.2170909,21.1266667 12.2170909,21.0222222 L12.2170909,16.1088889 C12.2170909,8.37111111 18.396,1.99444444 25.9941818,1.89111111 C29.6127273,1.82111111 33.1112727,3.29222222 35.7872727,5.98777778 C38.5570909,8.77 40.1465455,12.6066667 40.1465455,16.5177778 L40.1465455,41.8866667 Z M41.8930909,39.2211111 L45.384,39.2211111 L45.384,37.4422222 L41.8930909,37.4422222 L41.8930909,39.2211111 Z" id="Fill-1" fill="#1E3245" mask="url(#mask-2)"></path>
                    <polygon id="Path" fill="#9CD9F5" mask="url(#mask-2)" points="12.2170909 47.22 40.1465455 47.22 40.1465455 43.6655556 12.2170909 43.6655556"></polygon>
                </g>
                <polygon id="Fill-4" fill="#1E3245" points="24.1789091 32.3722222 22.6145455 30.7755556 24.1789091 29.1822222 22.9472727 27.9277778 21.384 29.5211111 19.8152727 27.9277778 18.5836364 29.1822222 20.148 30.7755556 18.5836364 32.3722222 19.8152727 33.6266667 21.384 32.0333333 22.9472727 33.6266667"></polygon>
                <polygon id="Fill-5" fill="#1E3245" points="32.5483636 33.6266667 33.78 32.3722222 32.2156364 30.7755556 33.78 29.1822222 32.5483636 27.9277778 30.984 29.5211111 29.4163636 27.9277778 28.1847273 29.1822222 29.7490909 30.7755556 28.1847273 32.3722222 29.4163636 33.6266667 30.984 32.0333333"></polygon>
                <polygon id="Fill-6" fill="#1E3245" points="19.4574545 35.0377778 17.8930909 36.63 16.3254545 35.0377778 15.0938182 36.2955556 16.6581818 37.8888889 15.0938182 39.4822222 16.3254545 40.74 17.8930909 39.1433333 19.4574545 40.74 20.6890909 39.4822222 19.1247273 37.8888889 20.6890909 36.2955556"></polygon>
                <polygon id="Fill-7" fill="#1E3245" points="28.1847273 35.0377778 26.6203636 36.63 25.0527273 35.0377778 23.8210909 36.2955556 25.3854545 37.8888889 23.8210909 39.4822222 25.0527273 40.74 26.6203636 39.1433333 28.1847273 40.74 29.4163636 39.4822222 27.852 37.8888889 29.4163636 36.2955556"></polygon>
                <polygon id="Fill-8" fill="#1E3245" points="36.912 35.0377778 35.3476364 36.63 33.78 35.0377778 32.5483636 36.2955556 34.1127273 37.8888889 32.5483636 39.4822222 33.78 40.74 35.3476364 39.1433333 36.912 40.74 38.1436364 39.4822222 36.5792727 37.8888889 38.1436364 36.2955556"></polygon>
            </g>
        </g>
    </g>
</svg>